<svg xmlns="http://www.w3.org/2000/svg" width="700" height="187" viewBox="0 0 700 187">
    <title>Logo Blade UI Kit</title>
    <style type="text/css">.a{fill:#e32e27}.b{fill:#ef382c}.c{fill:#f26c65}.d{fill:#f7a9a7}.e{fill:#f26b65}.f{fill:#fbcbc8}.g{fill:#fdeaea}.h{fill:#010101}</style>
    <path class="a" d="M0 124.7l36-21v83l-36-20z"/>
    <path class="b" d="M0 41.7l36 21v41l-36 21zM72 124.7l36 20-72 42v-42z"/>
    <path class="c" d="M108 103.7v41l-36-20z"/>
    <path class="d" d="M72 41.7l36 21-36 20z"/>
    <path class="e" d="M108 20.7v42l-36-21z"/>
    <path class="d" d="M72 82.7v42l36-21z"/>
    <path class="f" d="M36 103.7l36 21v-42z"/>
    <path class="b" d="M72-.3v42l36-21z"/>
    <path class="a" d="M36 20.7l-36 21 36 21 36-21v-42z"/>
    <path class="g" d="M36 103.7l36 21-36 20z"/>
    <path class="h" d="M226.4 110c2.5 3.3 3.7 7.4 3.7 12.2 0 6.7-2.3 12-7 15.7-4.6 3.7-11.1 5.6-19.4 5.6h-33.7v-78.2h32.6c8 0 14.3 1.8 18.8 5.4 4.5 3.6 6.7 8.6 6.7 15.1 0 4.2-1.1 7.8-3.2 10.8-2.2 3-5.2 5.3-9 6.7 4.5 1.2 8 3.4 10.5 6.7zm-45.2-10.7h19.7c10.9 0 16.3-4.2 16.3-12.6 0-8.1-5.4-12.2-16.3-12.2h-19.7v24.8zm33.9 32c2.6-2.1 3.9-5.3 3.9-9.7 0-4.5-1.3-7.8-4-9.9-2.7-2.2-6.8-3.2-12.4-3.2h-21.5v26.1h21.5c5.7-.2 9.9-1.2 12.5-3.3zm24.5 12.3v-80.9h10.9v80.9h-10.9zm73.2-55.4v55.4h-10.9v-9.5c-1.6 3.3-4 5.8-7.2 7.6-3.2 1.8-6.9 2.6-11.1 2.6-4.9 0-9.2-1.2-12.9-3.5-3.7-2.3-6.6-5.7-8.6-9.9-2-4.3-3.1-9.3-3.1-15s1-10.8 3.1-15.2c2.1-4.4 5-7.8 8.7-10.2 3.7-2.4 8-3.6 12.7-3.6 4.2 0 7.9.9 11.1 2.7 3.1 1.8 5.5 4.3 7.2 7.6v-9h11zm-15 42.1c2.7-3.5 4.1-8.4 4.1-14.7 0-6.4-1.4-11.3-4.1-14.7-2.7-3.4-6.6-5.2-11.7-5.2-5 0-8.8 1.8-11.7 5.3-2.8 3.6-4.2 8.5-4.2 14.8 0 6.2 1.4 11.1 4.2 14.5 2.8 3.4 6.7 5.2 11.8 5.2 5 0 8.9-1.7 11.6-5.2zm77.3-67.6v80.9h-10.9v-9.5c-1.6 3.3-4 5.8-7.2 7.6-3.2 1.8-6.9 2.6-11.1 2.6-4.7 0-9-1.2-12.7-3.6-3.7-2.4-6.6-5.8-8.7-10.2s-3.1-9.4-3.1-15.1c0-5.7 1-10.7 3.1-15.1 2-4.3 4.9-7.7 8.6-10 3.7-2.3 8-3.5 12.9-3.5 4.2 0 7.8.9 11 2.6 3.2 1.8 5.6 4.3 7.2 7.5v-34.2h10.9zm-15 67.6c2.7-3.5 4.1-8.4 4.1-14.7 0-6.3-1.4-11.2-4.1-14.7-2.7-3.5-6.6-5.2-11.5-5.2-5 0-9 1.7-11.8 5.2-2.8 3.4-4.2 8.3-4.2 14.5 0 6.3 1.4 11.2 4.2 14.8 2.8 3.6 6.7 5.3 11.7 5.3 4.9 0 8.8-1.7 11.6-5.2zm73.9-13.9h-39.4c.4 13 6.2 19.5 17.6 19.5 6.3 0 12.1-2.1 17.4-6.3l3.4 7.9c-2.5 2.2-5.6 3.9-9.5 5.2s-7.7 1.9-11.5 1.9c-8.8 0-15.8-2.5-20.8-7.6s-7.6-12.1-7.6-20.9c0-5.6 1.1-10.7 3.3-15.1 2.2-4.4 5.3-7.8 9.4-10.2 4-2.4 8.6-3.6 13.7-3.6 7.4 0 13.3 2.4 17.6 7.3 4.3 4.8 6.4 11.5 6.4 20.1v1.8zm-33.9-17.2c-2.6 2.5-4.3 6-5 10.7h29.2c-.4-4.7-1.9-8.3-4.3-10.7-2.4-2.5-5.7-3.7-9.7-3.7-4.2-.1-7.6 1.2-10.2 3.7z"/>
    <path class="b" d="M539.7 66.4h17.6v77.1h-17.6v-77.1zm-30.7 47.4c0 9.9-4.6 14.9-13.7 14.9s-13.7-4.8-13.7-14.3v-48h-17.6v48c0 9.6 2.9 17 8.6 22.3 5.7 5.3 13.3 7.9 22.7 7.9 9.6 0 17.2-2.6 22.8-7.9 5.6-5.3 8.5-13 8.5-23v-47.3h-17.6v47.4zm131.1 29.7h16.7v-58h-16.7v58zm45.9-58v-22.8h-16.7v80.9h16.7v-45.8h14v-12.3h-14zm-52 0h-18.4l-19.8 26.5v-45.6h-17.6v77.1h17.6v-26.2l20.7 26.2h19.4l-24-29 22.1-29z"/>
</svg>
