<?xml version="1.0" encoding="UTF-8"?>
<svg width="332px" height="332px" viewBox="0 0 332 332" version="1.1" xmlns="http://www.w3.org/2000/svg" xmlns:xlink="http://www.w3.org/1999/xlink">
    <!-- Generator: Sketch 52.5 (67469) - http://www.bohemiancoding.com/sketch -->
    <title>full-stack-belgium</title>
    <desc>Created with Sketch.</desc>
    <g id="Page-1" stroke="none" stroke-width="1" fill="none" fill-rule="evenodd">
        <g id="full-stack-belgium">
            <path d="M166,328 C76.5298705,328 4,255.470129 4,166 C4,76.5298705 76.5298705,4 166,4 C255.470129,4 328,76.5298705 328,166 C328,255.470129 255.470129,328 166,328 Z" id="White-fill" fill="#FFFFFF"></path>
            <path d="M167,290 C234.707167,290 290,234.707167 290,167 C290,98.4384892 234.851955,43 167,43 C98.2928334,43 43,98.2928334 43,167 C43,234.851955 98.4384892,290 167,290 Z M167,298 C93.8745554,298 35,239.125445 35,167 C35,93.8745554 93.8745554,35 167,35 C239.125445,35 298,93.8745554 298,167 C298,239.125445 239.125445,298 167,298 Z" id="Inner" fill="#008789" fill-rule="nonzero"></path>
            <g id="Group-7" transform="translate(78.000000, 69.000000)" fill="#E9E9E9" stroke="#000000" stroke-width="2">
                <g id="Clip-4">
                    <polygon id="path-1" points="178.298607 83.8409034 178.237047 83.011232 178.588817 82.0128041 178.883131 80.244681 178.944104 79.245077 178.825089 78.7723231 178.179005 78.246649 177.826063 77.242929 177.710565 76.7107868 177.710565 76.1221965 178.237047 75.5906424 177.357037 75.5324301 175.358398 75.0602642 174.653686 74.7080508 174.008188 74.7080508 172.657979 75.1178885 172.127979 75.000876 171.600911 74.2364729 171.070325 73.6472946 171.422094 72.998728 170.540911 72.7647031 170.835225 71.9409118 170.072471 70.9371917 170.953654 69.5830223 171.541696 69.1096804 172.421121 68.3452774 173.596618 67.2821691 174.126031 66.4007536 174.478974 65.752187 171.129539 65.2800211 170.189141 64.749055 169.6609 63.6283225 170.307571 63.2184849 167.95599 59.6810627 167.429508 58.9213637 166.48911 58.0340681 165.724011 57.9752679 163.843801 58.502118 163.197717 58.4439058 163.022419 57.8006312 163.197717 57.0303481 163.139089 56.3288613 162.375749 55.9096156 162.434377 55.4421538 161.846335 55.5591662 158.087089 55.500366 158.557288 56.504086 157.559434 55.6173785 156.971979 55.4421538 152.919005 55.5591662 152.447634 55.2081288 151.44978 54.2626211 150.567424 54.3796335 150.23207 54.9364717 149.686241 55.3251413 148.922901 55.3251413 148.277403 54.9105996 148.335445 53.7951592 148.511916 53.1418886 148.571717 52.259885 147.923874 52.0799563 147.220335 51.7289189 146.720236 51.5237061 146.044838 50.9051276 145.39934 49.9014076 145.221696 49.1952168 145.162482 48.0744843 145.809152 47.3677055 148.571717 44.3030372 149.098199 44.0690123 149.627613 43.8931996 150.451926 42.8312673 151.272136 41.0678483 151.681948 40.4145777 151.391738 39.8883156 149.863298 40.1805527 151.681948 37.2370129 152.447634 35.4053856 151.80155 34.5274981 151.860764 33.9336157 151.977435 33.2903412 152.095864 32.8128833 153.035675 33.0516122 153.388031 32.5788583 153.623717 32.0525962 153.976073 31.0488762 153.740974 30.5179101 153.623717 29.9863559 154.621571 29.9863559 155.210199 29.752919 154.444513 28.4563738 154.564115 27.5696663 155.210199 26.9263917 154.681372 25.5716343 153.918031 25.5716343 153.210388 25.747447 152.506848 25.9226717 151.860764 25.3917056 150.862324 24.0369481 150.098398 23.5641943 149.510356 23.4477698 148.629173 23.6229945 147.514063 23.8617234 146.748963 23.8617234 146.221309 23.4477698 145.75111 22.9209197 145.103854 22.4434618 142.462063 21.6831747 141.404408 20.7964672 141.226764 19.0912604 140.875581 17.6147865 139.993225 16.498758 139.405183 16.1430166 138.878701 15.8454874 137.879675 15.7290629 137.172618 16.0213001 135.001026 17.497774 134.002 17.8535154 128.478042 17.6147865 126.776063 18.0287401 125.893707 17.8535154 125.893707 15.2028008 125.072325 14.1402806 124.426827 14.0232681 122.368388 14.1990808 121.605634 13.7851271 121.253277 13.3117852 120.783079 11.6653787 120.549738 11.0168121 118.96267 9.24810099 118.669529 8.54191017 118.785026 7.54230617 118.844241 6.88962356 119.373068 5.71067884 119.550712 4.41413366 118.96267 3.29869319 118.610314 2.6507146 117.258346 1.70520682 116.436963 1.70520682 116.142063 2.11916048 115.967937 2.8253513 115.612649 3.71264685 115.203424 4.41413366 114.90911 4.89217957 114.556754 5.35964144 113.794 6.36336145 113.147916 7.07014028 112.617916 7.6011064 111.619476 7.89334357 110.679665 7.4258817 109.797309 7.00604802 108.917298 6.77261109 105.627078 6.65618662 104.628052 6.24634899 104.922366 5.35964144 107.507288 6.24634899 107.390618 5.71067884 107.211801 4.9503918 107.211801 3.77144709 107.507288 2.6507146 107.390618 1.52998212 106.919246 0.881415526 106.331204 0.46746187 105.627078 0.175224701 104.628052 0 103.100785 0.764403058 99.4582094 5.24262897 98.9897694 5.59366637 98.3436856 5.83239533 97.5205443 5.83239533 96.1111202 5.47665391 95.1109215 5.65246661 94.4636651 5.71067884 93.5261987 5.24262897 93.2910992 4.65286261 93.7601256 3.35749343 93.7601256 2.11916048 93.4077696 1.47118188 92.8197278 1.35416942 91.4108899 1.58819435 90.5285341 1.94393578 88.9426387 2.53311413 86.477319 3.94667179 87.0618431 4.59465038 86.9463453 5.1262045 86.651445 5.71067884 86.651445 6.48037392 86.887717 6.94842379 88.0608692 8.4248977 88.2959687 9.01466406 88.1798846 10.1353965 87.2389005 10.8997996 85.0655497 10.7780831 84.1837802 10.4858459 83.010628 9.83786735 82.4806282 9.54033816 81.1292461 9.48212593 81.8351307 10.3688335 80.3066911 10.4276337 79.4266804 9.60384242 79.0145235 11.6653787 78.7805966 12.3715695 76.9590156 14.9052716 74.6074347 16.7327829 68.8524814 19.6757347 67.0303141 21.1475046 66.3848166 21.503246 65.6801045 21.741975 60.1579055 21.8001872 59.57045 21.5661623 58.865738 20.738255 58.8053508 19.9732639 58.865738 19.1494726 58.6306385 18.1457526 57.748869 17.5559862 52.0496126 15.6708507 50.8764604 15.495038 49.8170472 15.5532502 47.8195812 15.9630879 47.0568271 16.0213001 46.4113296 16.2012288 45.8232878 16.7327829 45.7646595 17.3172573 45.8813298 18.5550022 45.7646595 19.2664851 43.5320941 19.6175225 42.0042408 19.4422978 41.358157 19.1494726 40.7707015 18.9107436 39.4779476 17.6147865 39.2422619 16.9662199 38.8318638 15.7290629 38.8318638 14.0232681 39.0089213 12.1916408 38.8899058 11.1926248 38.5961781 9.30690123 28.1409945 12.7273109 18.7422928 18.9107436 9.04693195 24.6267145 2.70393689 29.4600938 0.940397826 30.0451562 0 30.6978388 0.588041782 32.1696087 1.05941326 35.0543482 1.11745527 35.6435266 1.58648162 37.1205885 3.23100525 38.9428078 3.99610448 40.0635403 4.17140307 41.5347221 3.87708904 42.008064 3.17296324 42.6554546 2.7619789 43.0647043 2.46825115 43.7179749 2.9372775 45.3649695 3.40864898 46.9537518 3.35002068 47.489422 2.99766464 48.3126253 3.17296324 48.9023916 3.70237673 49.1370045 4.11277478 49.9649119 4.52375912 50.7834111 5.52219895 51.0809403 6.81436654 50.9639279 7.93182181 51.260869 8.16750755 51.6701187 8.34221986 52.2016728 8.6365339 52.7326389 10.1638009 54.2044088 10.6328273 54.9105996 11.2789111 56.3870735 11.5726388 56.8551234 12.1606806 57.3860895 12.8653927 57.8588434 16.1391966 59.3217933 16.8614972 59.5646383 17.6822933 59.1548006 18.5060208 57.741831 19.0940626 56.738111 19.9148587 55.7926032 20.4442722 55.500366 21.032314 55.1493286 23.0291936 54.5548582 23.6172354 54.2044088 25.0847016 53.7951592 27.3166807 53.0836763 28.4927643 53.4394178 29.3164918 54.1456086 30.0206176 55.3833535 30.0206176 55.9678279 30.5482723 56.9139237 31.136314 58.3263053 31.4880838 58.740847 32.1341676 58.7990592 32.7802514 58.9795759 33.1935809 59.6810627 33.4873086 60.6847827 33.7206492 61.3915616 33.3682932 61.9813279 33.0165234 62.6293065 33.3682932 64.749055 34.6024187 68.8715395 34.661047 71.2294289 34.8967328 72.0579242 35.6589006 72.998728 36.3055707 73.4714819 38.3628375 74.5328261 39.1842199 74.7674391 39.8883457 74.7080508 40.7707015 74.4746139 42.3565968 73.8801435 42.8279683 73.5296941 43.2964084 73.1198565 44.0011205 72.6423986 44.6477905 72.5847743 45.3542615 72.8229153 45.6456441 73.2368689 45.5876021 73.8225193 45.1185757 74.6498386 45.7066175 75.0602642 48.701937 75.0602642 49.7584189 75.2931132 50.8178321 75.8299593 51.6966702 76.8283873 52.4623557 78.246649 52.8727538 81.0725883 52.8727538 84.488882 53.2837381 87.49475 54.9282618 89.0241441 55.1053192 88.5566822 55.5163036 88.260329 55.8100313 87.6117624 56.6331725 86.1982048 56.9855286 85.7848391 57.6316124 85.4873099 59.6871203 85.3114972 61.625958 85.5466982 62.5657695 86.0817803 63.3894971 86.6074544 64.0349946 86.9002796 65.266775 86.9643719 66.26756 86.5498302 68.2063976 85.7248629 69.1473818 85.6043224 70.0256336 86.0235681 71.6127015 87.7287749 72.610555 88.3773415 73.5509529 89.2005448 73.8440943 89.8532274 74.7844922 91.9670959 75.6662617 92.3228373 76.0186177 91.0862683 76.6066595 90.8528314 77.252157 91.1491846 78.2511832 91.8512594 78.5460835 92.3822255 78.427068 93.0884164 78.0741257 93.5617582 76.9009736 94.502562 76.4296021 95.2134569 76.1956752 95.7985192 75.9605757 97.1521006 75.6076334 98.2146209 75.0195916 100.04272 74.9005762 101.39689 75.6076334 101.693831 76.5486175 101.278701 77.4890153 101.460394 78.2511832 104.636783 78.5460835 105.347677 78.8392249 105.93274 78.8392249 106.405494 78.3678535 106.644811 77.7211834 106.93646 76.6641153 107.701451 75.782932 108.466442 75.430576 108.881572 75.2535185 109.41195 75.0782199 110.235153 75.430576 110.884308 75.5472463 111.415274 75.6076334 112.47309 77.8401988 113.88606 78.4868689 114.1242 80.7194343 113.769047 82.0702302 113.593234 83.3037695 113.943684 89.001267 115.53717 90.8228481 115.420746 95.6989633 112.945256 97.3434869 112.122052 99.2834971 111.829815 99.811738 111.474074 100.163508 110.767295 100.515278 109.52955 100.75155 107.99898 100.867634 107.229285 100.867634 106.703023 100.692921 106.167941 100.692921 105.168337 100.986649 104.577982 105.978848 99.510578 107.211801 98.9266917 107.390618 99.9833319 107.9171 100.221473 109.386325 99.9251197 109.797309 100.515474 109.797309 101.811431 109.562796 103.341413 109.502995 103.872379 109.445539 104.577982 108.976513 104.05172 108.036115 105.465278 107.800429 105.990952 107.742387 106.644811 107.800429 107.229285 107.742387 107.883144 107.211801 109.294937 105.921392 112.530714 105.745508 113.710835 106.273162 114.773355 107.211801 115.123804 108.505141 115.658887 109.211612 117.014232 109.270827 117.482282 109.211612 118.543626 108.976513 119.133393 108.799455 119.781371 108.624743 120.308221 108.211414 120.901516 108.095916 121.370741 108.682785 122.490298 108.799455 125.613766 109.21044 126.145321 110.385351 126.319369 111.443005 126.145321 112.559874 125.788991 113.500272 125.491462 114.087727 125.433838 114.673424 125.491462 115.320094 125.613766 117.025591 127.324265 117.96423 127.850527 119.25757 128.206857 120.197382 128.854835 121.018764 130.09258 122.194262 131.738987 122.662115 132.211741 123.781329 133.03612 124.836639 133.333649 126.188021 132.976732 126.953706 132.743295 127.95156 132.743295 128.949414 133.746427 129.831769 134.863043 130.125497 135.924976 129.654126 136.39773 129.479413 137.455546 129.59667 138.161149 130.594523 138.574514 131.123937 138.161149 131.476879 137.576086 132.065507 137.753075 133.708858 138.453974 134.590042 139.224257 136.821435 143.287941 136.998492 144.000012 136.998492 144.700911 136.821435 145.411806 136.761634 146.05508 137.055948 146.707763 138.054974 147 139.289686 146.294397 139.935183 145.821643 140.522052 145.411806 141.404408 144.99844 142.871288 145.704043 143.636974 145.762843 144.106 145.471194 144.22267 144.99844 144.810712 144.231685 145.986209 143.643095 147.042691 143.881824 148.042304 144.349285 149.040743 144.525686 149.627613 144.291661 150.215654 143.463754 150.744482 143.170929 152.330963 143.878296 152.91666 144.000012 153.976073 143.463754 155.032555 142.347725 155.268241 141.815583 155.501581 141.226993 154.738827 140.754239 155.268241 140.286189 155.62001 139.574118 155.856283 138.873219 156.208052 137.9283 156.561581 137.455546 157.030021 137.041004 157.26512 136.39773 157.030021 135.45281 155.736681 135.04356 155.384911 134.570218 155.326869 133.981628 155.443539 133.274261 155.736681 132.626283 155.856283 132.036516 155.561968 131.38795 155.032555 131.50555 154.270387 130.974584 153.623717 130.798771 153.271947 129.444602 152.389592 127.441866 152.095864 126.909724 151.743508 126.496358 151.155466 126.145321 150.15644 125.848379 149.687413 125.025176 149.394272 124.196093 149.336816 123.313501 149.569571 122.607898 150.098398 122.256861 149.687413 121.842319 149.863298 121.370741 149.92134 120.843891 151.155466 120.960904 150.68644 120.308221 149.863298 119.663771 149.158586 119.250993 149.336816 118.543626 149.92134 117.540494 150.980754 115.775311 151.155466 115.303733 151.391738 114.713967 151.80155 114.065988 152.799403 113.650859 153.214492 113.242785 153.740974 112.238477 153.214492 111.474074 153.271947 110.469766 154.506073 109.704775 154.857843 109.354325 154.975099 108.759267 154.975099 107.818463 154.915885 107.229285 155.210199 106.761235 155.914911 106.107964 156.208052 105.699891 156.324723 105.168337 156.383937 104.694995 156.444324 104.05172 156.619037 103.57485 157.442178 102.814563 159.204544 101.986656 159.90867 101.278701 160.261026 100.221473 160.43867 99.2771411 160.848482 98.5703623 161.846335 98.4492338 162.553392 97.8629955 162.963791 98.9266917 163.259277 99.4523658 163.846146 99.6858027 165.433801 99.5699663 166.13734 98.9849039 167.077152 99.510578 167.309906 100.221473 167.309906 100.923548 167.429508 101.518606 168.075005 101.811431 168.485403 101.338089 168.663047 100.865335 168.485403 100.397874 168.016377 100.04272 168.192262 99.3353533 168.309518 98.8678915 168.721089 98.5703623 169.720701 98.4492338 170.366785 97.50843 170.366785 96.6846387 170.189141 96.0360721 169.484429 95.1540686 169.955214 94.502562 171.012283 93.741099 171.422094 92.9719919 172.421121 92.50453 173.127005 92.3822255 174.301916 92.0894004 175.182513 91.3244093 174.948 90.6717267 175.067015 89.9708279 175.419371 89.2005448 175.888398 88.6736947 176.47644 88.260329 177.179979 88.3773415 178.179005 88.6154825 179.413131 88.3773415 180 87.7287749 179.882157 86.6656667"></polygon>
                </g>
            </g>
            <g id="Label" transform="translate(4.000000, 174.000000)">
                <path d="M0,0 L325,0 C324.831365,10.261932 323.164698,21.5952654 320,34 C316.725753,45.9356018 312.059086,57.9356018 306,70 L19,70 C12.4399798,58.3181012 7.77331309,46.6514345 5,35 C1.94944297,23.3485655 0.282776305,11.6818988 0,0 Z" id="Rectangle-5" fill="#008789"></path>
                <polygon id="Line-3" fill="#000000" points="19 71 19 67 306 67 306 71"></polygon>
                <polygon id="Line-3-Copy-4" fill="#000000" points="2 4 2 0 323 0 323 4"></polygon>
                <g id="FULL-STACK" transform="translate(32.000000, 9.000000)" fill="#FFFFFF" font-family="Roboto-Black, Roboto" font-size="45" font-weight="700">
                    <text>
                        <tspan x="0.4987793" y="42">FULL STACK</tspan>
                    </text>
                </g>
            </g>
            <path d="M167,324 C253.484848,324 324,253.484848 324,167 C324,79.5151519 253.484848,9 167,9 C79.5151519,9 9,79.5151519 9,167 C9,253.484848 79.5151519,324 167,324 Z M166,332 C74.3207315,332 0,257.679268 0,166 C0,74.3207315 74.3207315,0 166,0 C257.679268,0 332,74.3207315 332,166 C332,257.679268 257.679268,332 166,332 Z" id="Outer" fill="#000000" fill-rule="nonzero"></path>
            <g id="Antwerp" transform="translate(75.589365, 255.702200)">
                <path d="M0.297365424,9.19370602 L8.23513493,0.194160737 C32.6662399,21.7428583 59.9093425,32.4410023 90.2040413,32.4410023 C120.531738,32.4410023 148.348597,21.7172159 173.865035,0.11465386 L181.618796,9.2732129 C153.986909,32.6667427 123.445185,44.4410023 90.2040413,44.4410023 C56.9298996,44.4410023 26.8811414,32.6411003 0.297365424,9.19370602 Z" id="Path-5" fill="#FFFFFF"></path>
                <path d="M163.734023,30.9788872 L153.4704,44.6092561 L148.696026,41.0141685 C147.04215,39.7688051 146.026214,38.5074947 145.648189,37.2301995 C145.270164,35.9529043 145.541697,34.7026533 146.462796,33.479409 C146.965641,32.8116174 147.580187,32.3526419 148.306452,32.1024685 C149.032717,31.8522952 149.79094,31.8389037 150.581142,32.0622935 C150.013731,31.3612021 149.728484,30.5938652 149.725393,29.7602598 C149.722302,28.9266544 150.009771,28.1260397 150.587807,27.3583914 C151.574699,26.0477725 152.740049,25.3703223 154.083893,25.3260206 C155.427737,25.2817189 156.878226,25.8360548 158.435404,26.9890449 L163.734023,30.9788872 Z M156.45638,34.7993316 L159.226712,31.1202554 L156.820803,29.3086132 C156.159252,28.8104679 155.524153,28.5791753 154.915487,28.6147286 C154.306821,28.650282 153.793369,28.9457806 153.375115,29.5012334 C152.435218,30.7494419 152.604166,31.8692876 153.881963,32.860804 L156.45638,34.7993316 Z M154.961952,36.7839732 L152.883695,35.2190527 C151.44818,34.1772339 150.314536,34.2086563 149.482727,35.3133209 C149.017478,35.9311841 148.862072,36.5109599 149.016504,37.0526656 C149.170937,37.5943713 149.63509,38.1565837 150.40898,38.7393198 L152.374898,40.21965 L154.961952,36.7839732 Z M129.496297,20.5267839 L135.605472,23.3974075 L137.549123,19.2609868 L130.379328,15.8919911 L131.580404,13.3358953 L141.932062,18.2000074 L134.675764,33.6426445 L124.345318,28.7884998 L125.556363,26.2111916 L132.704946,29.5702198 L134.434297,25.8898661 L128.325122,23.0192425 L129.496297,20.5267839 Z M115.638457,12.4771659 L108.398168,10.6599968 L109.085668,7.92073508 L119.735827,10.5937138 L115.582297,27.1429464 L112.172428,26.2871368 L115.638457,12.4771659 Z M84.1346824,8.74541831 C84.8143048,8.02927964 85.7443248,7.49933484 86.9247702,7.155568 C88.1052157,6.81180117 89.3971308,6.6845316 90.8005545,6.77375548 C92.2741493,6.86744055 93.5460024,7.27121274 94.6161518,7.98508415 C95.6863012,8.69895556 96.4845784,9.68713301 97.0110072,10.9496462 C97.537436,12.2121593 97.7559009,13.6703503 97.6664086,15.3242628 L97.5927993,16.4820816 C97.4847393,18.1817835 97.1046515,19.6351908 96.4525246,20.842347 C95.8003976,22.0495032 94.9134764,22.9481562 93.7917342,23.5383328 C92.669992,24.1285094 91.384038,24.3774949 89.9338335,24.2852969 C87.9144629,24.1569137 86.3662432,23.5750933 85.2891282,22.5398182 C84.2120132,21.5045432 83.6266989,20.0602134 83.5331678,18.2067854 L86.9481482,18.4238958 C87.0421232,19.4084093 87.3417715,20.1437395 87.8471023,20.6299085 C88.352433,21.1160774 89.0728955,21.3888991 90.0085112,21.4483816 C91.2014213,21.5242219 92.1382363,21.1336596 92.8189843,20.2766829 C93.4997323,19.4197062 93.9002593,18.1065488 94.0205773,16.3371713 L94.0897255,15.2495234 C94.2032381,13.4640566 93.9498352,12.0936687 93.3295093,11.1383185 C92.7091834,10.1829682 91.7441039,9.66366304 90.4342418,9.58038742 C89.116583,9.49661611 88.1592384,9.71756709 87.5621794,10.243247 L87.3755537,13.1787268 L90.5683265,13.3817101 L90.4040067,15.9663358 L83.7026923,15.5402938 L84.1346824,8.74541831 Z M66.2127288,8.6423651 L69.6463133,7.88730431 L73.310875,24.5516343 L69.8772905,25.3066951 L66.2127288,8.6423651 Z M47.1523628,32.0529319 L43.0768323,21.5796794 C42.3996987,19.8395892 42.408458,18.251777 43.1031104,16.8161954 C43.7977628,15.3806137 45.0879219,14.2959404 46.9736264,13.5621429 C48.8302081,12.8396782 50.495768,12.7574056 51.9703562,13.3153225 C53.4449444,13.8732394 54.5274603,15.0070552 55.2179364,16.7168037 L59.3402144,27.3101873 L56.0639102,28.5851186 L51.9798801,18.0900242 C51.5747333,17.0488823 51.0300165,16.3869149 50.3457134,16.1041021 C49.6614103,15.8212893 48.8787874,15.8512907 47.9978212,16.1941073 C46.155801,16.9109056 45.5970528,18.2432859 46.3215598,20.1912882 L50.439588,30.7737508 L47.1523628,32.0529319 Z M35.2567583,39.9493072 L25.5372243,31.124324 L27.5565141,44.0883991 L23.4896291,46.2744611 L15.411187,31.2455662 L18.518122,29.5755037 L20.7263775,33.6836769 L24.2284536,40.9413719 L22.2650237,27.5614416 L24.3913646,26.4184752 L34.45205,35.4326048 L30.3361996,28.5181346 L28.1279442,24.4099614 L31.2245571,22.7454472 L39.3029992,37.7743421 L35.2567583,39.9493072 Z" id="BELGIUM" fill="#000000" fill-rule="nonzero" transform="translate(89.572605, 26.510319) rotate(-180.000000) translate(-89.572605, -26.510319) "></path>
            </g>
        </g>
    </g>
</svg>