<svg viewBox="0 0 1943 376" fill="none" xmlns="http://www.w3.org/2000/svg">
    <g clip-path="url(#clip0_107_145)">
        <path d="M126.294 0.0692139C154.133 11.4062 195.617 48.9576 212.356 72.2515C293.932 185.774 259.731 288.84 138.942 349.926C138.686 328.874 138.849 307.474 138.838 286.392C146.65 274.278 187.917 248.232 188.206 239.024C185.592 233.301 180.37 230.414 175.192 227.024C167.731 231.837 147.435 249.087 139.033 255.699C138.69 241.355 137.875 231.22 138.324 216.666C145.188 205.062 173.592 187.142 183.339 175.571C190.119 167.523 180.614 160.932 174.988 156.3C163.315 164.056 151.194 176.852 138.509 184.497C138.764 172.238 137.227 154.317 138.608 143.084C147.5 131.937 181.334 106.071 184.915 97.925C184.42 93.415 177.816 83.524 172.546 86.175C160.939 92.015 148.599 103.886 138.282 111.695C137.382 99.986 139.741 51.08 135.971 45.6046C132.97 43.9074 128.177 44.1775 124.609 44.0999C121.781 43.9743 120.862 43.8102 118.359 45.2542C115.397 50.791 116.786 102.234 116.563 112.733C105.428 104.064 93.6428 93.566 82.5547 84.43C76.9014 89.083 71.9668 93.022 66.9006 98.31C80.6965 113.287 100.141 124.98 113.916 139.847C117.45 143.66 117.955 181.917 115.193 185.468C107.652 184.006 89.346 159.7 78.4645 158.899C73.6222 156.4 66.4163 169.154 67.8339 171.791C78.3041 191.266 116.978 202.563 116.855 227.082C116.801 237.846 116.555 248.859 116.283 259.203C110.028 252.763 85.7955 231.93 78.1769 228.443C74.7099 231.752 69.0337 236.081 68.0883 240.971C66.7341 247.976 110.115 279.048 116.55 288.684C117.124 306.878 117.221 331.827 116.375 349.818C77.7727 331.415 36.1147 296.969 15.9116 259.212C-3.98323 222.032 -3.55904 178.217 8.21994 138.567C26.7845 76.076 69.9027 30.4535 126.294 0.0692139Z" fill="#5655CA"/>
        <path d="M351.63 104.236C359.433 104.164 392.401 102.27 397.104 106.19C409.1 116.19 446.898 244.209 456.362 249.191C464.328 244.485 502.936 118.9 515.877 105.82C518.807 102.857 558.73 103.59 563.258 106.358C566.13 115.579 565.688 302.817 563.933 315.155C559.703 320.474 533.484 319.879 528.61 317.142C527.241 315.364 526.274 314.393 526.257 312.033C526.082 287.475 524.56 259.365 526.133 235.071C525.249 216.679 526.46 197.218 525.751 178.611C521.061 186.875 515.113 202.604 511.369 211.85C502.031 234.974 493.037 258.235 484.393 281.627C480.488 292.073 476.712 303.7 471.679 313.603C468.889 319.092 444.4 319.353 441.462 314.861C430.225 297.679 397.21 190.08 387.245 182.606C383.053 188.135 389.189 306.81 384.239 315.513C382.441 317.158 381.384 317.369 379.015 317.415C345.618 318.068 347.041 324.339 347.21 289.362L347.238 244.841C347.243 202.084 346.997 159.209 347.926 116.464C348.051 110.719 347.678 107.939 351.63 104.236Z" fill="#5655CA"/>
        <path d="M669.056 158.259C713.634 156.413 751.337 190.94 753.456 235.548C755.574 280.157 721.313 318.109 676.762 320.504C631.822 322.92 593.503 288.26 591.365 243.262C589.229 198.263 624.089 160.121 669.056 158.259ZM676.704 285.965C690.061 283.072 698.881 279.06 706.786 266.718C714.186 255.091 716.598 240.97 713.475 227.542C709.675 210.679 694.831 191.046 672.715 192.184C672.479 192.261 672.244 192.338 672.01 192.415C614.421 197.039 616.714 287.866 676.704 285.965Z" fill="#5655CA"/>
        <path d="M1016.02 157.432C1017.63 157.173 1018.81 157.27 1020.4 157.213C1061.24 155.76 1092.55 188.731 1096.58 228.074C1097.39 235.977 1096.96 243.59 1096.46 251.686C1059.91 254.212 1019.92 249.024 983.739 253.539C982.9 254.387 983.849 258.357 984.089 259.029C989.763 274.533 1002.74 287.68 1020 288.58C1035.39 289.382 1046 280.975 1056.75 271.283C1062.83 270.793 1072.33 271.093 1078.68 271.115L1092.97 271.089C1090.18 280.458 1086.73 287.395 1080.45 294.896C1067.92 309.947 1049.83 319.298 1030.31 320.834C921.939 330.295 914.291 165.501 1016.02 157.432ZM1021.12 222.095C1032.11 222.054 1046.44 222.367 1057.14 221.701C1052.1 203.805 1041.18 190.695 1020.88 191.343C1009.71 192.56 998.644 195.593 991.202 204.816C987.435 209.451 985.657 215.384 986.236 221.328C989.273 222.874 1015.82 222.132 1021.12 222.095Z" fill="#5655CA"/>
        <path d="M1543.95 158.18C1564.14 157.018 1581.32 159.467 1598.01 171.594C1615.6 184.383 1626.05 204.227 1629.41 225.47C1630.45 232.064 1632.79 244.028 1628.55 249.687C1624.96 254.477 1529.21 251.125 1515.78 253.232C1527.69 292.702 1561.22 299.636 1590.08 271.106L1608.22 271.071C1612.76 270.927 1622.39 269.488 1625.02 273.066C1625.29 277.052 1621.29 283.976 1619.12 287.465C1609 303.446 1593 314.799 1574.59 319.072C1470.19 343.377 1435.54 182.244 1543.95 158.18ZM1517.88 222.092C1524.58 222.136 1552.94 221.522 1557.21 222.063C1562.74 222.14 1585.29 222.97 1588.89 221.656C1589.68 217.491 1588.83 215.171 1587.18 211.39C1580.27 195.533 1565.13 190.832 1549.33 191.404C1530.23 195.421 1522.1 202.678 1517.88 222.092Z" fill="#5655CA"/>
        <path d="M1723.95 157.489C1775.34 158.284 1804.14 203.387 1797.91 251.753C1762.57 253.091 1720.61 251.924 1684.68 252.08C1686.9 261.305 1689.54 268.56 1696.25 275.792C1703.26 283.376 1712.99 287.844 1723.3 288.199C1738.5 288.649 1748.16 281.088 1758.36 271.428C1766.67 270.735 1778.88 271.114 1787.48 271.134C1789.73 270.98 1790.26 270.886 1792.32 271.738C1795.86 278.521 1786.01 290.714 1781.52 295.705C1767.26 311.521 1749.91 319.592 1728.96 320.784C1683.46 323.372 1648.82 290.323 1647.4 245.065C1645.6 206.864 1662.99 173.339 1700.65 160.819C1709.1 158.01 1714.98 157.882 1723.95 157.489ZM1687.69 222.239C1701.06 222.19 1715.24 222.392 1728.54 222.078C1738.57 221.901 1749.75 221.401 1759.68 221.62C1755.02 200.85 1744.3 191.569 1722.72 190.326C1702.74 192.951 1690.06 201.126 1687.69 222.239Z" fill="#5655CA"/>
        <path d="M1107.79 161.11C1114.53 161.128 1138.25 159.7 1141.24 162.738C1151.11 172.749 1173.63 259.29 1180.45 265.105C1186.43 263.108 1211.47 174.856 1221.85 162.853C1227.13 160.208 1253.08 159.405 1256.97 163.348C1257 172.407 1220.4 259.176 1214.37 274.745C1202.41 302.95 1195.1 333.928 1175.03 357.386C1162.15 372.441 1109.49 390.542 1114.6 356.641C1115.31 351.964 1114.96 344.862 1115.07 339.944C1122.37 339.228 1132.01 340.384 1138.96 338.664C1149.13 336.144 1160.71 319.89 1158.67 309.365C1156.54 298.427 1151.19 286.481 1147.12 275.98L1120.81 208.047C1115.92 195.548 1110.45 182.406 1106.35 169.635C1105.14 165.875 1106.06 164.087 1107.79 161.11Z" fill="#5655CA"/>
        <path d="M848.458 158.161C860.756 157.445 872.82 157.192 884.408 161.994C897.406 167.38 907.412 178.443 912.78 191.323C915.43 197.679 916.769 204.412 917.385 211.252C918.354 222.025 919.31 308.627 917.121 313.617C916.5 315.032 915.704 316.183 914.26 316.751C907.811 319.284 892.669 319.847 886.36 316.993C883.854 315.86 882.797 314.571 882.163 311.85C880.623 305.241 881.695 297.204 881.758 290.403C881.931 272.098 884.249 223.287 878.511 208.606C875.97 202.107 871.39 196.011 864.853 193.175C856.064 189.362 845.757 191.171 837.177 194.592C828.776 198.148 823.208 203.611 819.743 212.095C813.048 228.494 816.425 273.555 816.72 293.032C816.816 299.35 818.021 307.533 815.458 313.452C814.657 315.301 813.472 316.484 811.595 317.196C807.937 318.582 785.129 318.493 781.717 316.952C780.246 316.286 780.005 315.88 779.461 314.391C777.091 307.891 777.764 187.748 778.456 172.755C778.615 169.301 778.808 165.631 780.273 162.453C784.891 159.608 807.133 159.587 811.494 163.177C814.154 167.263 813.483 174.112 813.596 179.403C828.295 167.015 827.846 163.447 848.458 158.161Z" fill="#5655CA"/>
        <path d="M1863.2 158.427C1891.45 156.11 1921.45 160.84 1935.17 190.255C1937.11 194.415 1940.04 204.236 1938.42 208.315C1933.53 211.34 1911.37 210.059 1904.56 209.952C1901.26 202.684 1899.82 199.074 1892.9 194.294C1882.92 187.41 1865.37 186.412 1857.84 197.321C1856.43 199.381 1854.03 206.894 1855.25 208.975C1863.16 222.485 1889.14 222.397 1902.73 227.967C1910.3 230.154 1916.09 232.92 1922.94 236.834C1944.46 249.132 1947.11 276.707 1934.52 296.543C1924.96 311.609 1911.3 316.419 1894.2 320.026C1871.14 323.112 1842.38 318.9 1826.89 299.815C1819.72 290.982 1817.02 281.019 1814.18 270.256C1822.52 269.521 1839.61 270.004 1848.6 270.014C1853.48 277.111 1856.53 281.91 1864.54 286.286C1875.79 292.428 1896.46 291.913 1903.79 279.862C1905.31 277.364 1905.8 271.777 1904.57 269.127C1895.32 249.19 1858.07 254.493 1840.58 242.835C1831.78 237.913 1824.07 230.259 1821.57 219.867C1813.21 185.097 1832.68 167.161 1863.2 158.427Z" fill="#5655CA"/>
        <path d="M1280.74 119.217C1281.11 119.179 1281.49 119.145 1281.87 119.114C1326.15 115.511 1314.62 124.338 1315.95 161.03C1328.2 160.657 1340.96 160.83 1353.36 160.554C1354 165.883 1354.6 171.219 1355.14 176.561C1356.33 189.152 1354.39 195.398 1340.58 194.661C1332.93 194.252 1324.52 194.169 1316.89 194.454C1314.97 214.574 1315.63 252.584 1317.81 272.948C1318.09 275.526 1320.73 279.871 1322.19 282.149C1331.58 285.9 1339.69 285.51 1349.31 284.03C1355.78 289.329 1355.2 307.678 1352.06 315.147C1351.4 316.715 1347.92 319.004 1346.04 319.11C1315.29 320.834 1286.14 316.483 1279.98 280.516C1275.85 252.226 1278.64 220.896 1277.86 192.078C1277.27 170.492 1277.96 147.82 1277.99 126.183C1278.02 123.667 1279.35 121.211 1280.74 119.217Z" fill="#5655CA"/>
        <path d="M1452.26 159.331C1453.76 159.269 1455.26 159.228 1456.77 159.209C1473.57 159.036 1467.71 182.564 1467.54 195.526C1457.12 196.602 1443.34 197.179 1434.54 202.952C1417.27 214.28 1417.63 232.33 1417.29 250.531C1416.89 270.732 1418.26 291.127 1417.2 311.228C1416.61 322.304 1389.47 319.353 1382.7 317.515C1380.11 315.267 1380.81 315.092 1380.13 310.954C1381.24 278.861 1379.31 243.98 1380.25 211.654C1380.57 200.503 1378.93 172.196 1381.93 163.499C1384.03 161.236 1388.12 160.873 1391.12 160.868C1416.86 160.817 1415.53 158.463 1414.97 183.54C1426.63 168.68 1433.21 162.324 1452.26 159.331Z" fill="#5655CA"/>
    </g>
    <defs>
        <clipPath id="clip0_107_145">
            <rect width="1943" height="376" fill="white"/>
        </clipPath>
    </defs>
</svg>
